<?xml version="1.0" encoding="UTF-8" standalone="no"?>
<svg
   xmlns:dc="http://purl.org/dc/elements/1.1/"
   xmlns:cc="http://creativecommons.org/ns#"
   xmlns:rdf="http://www.w3.org/1999/02/22-rdf-syntax-ns#"
   xmlns:svg="http://www.w3.org/2000/svg"
   xmlns="http://www.w3.org/2000/svg"
   xmlns:sodipodi="http://sodipodi.sourceforge.net/DTD/sodipodi-0.dtd"
   xmlns:inkscape="http://www.inkscape.org/namespaces/inkscape"
   id="svg2"
   version="1.1"
   inkscape:version="0.48.4 r"
   sodipodi:docname="animals.svg">
   <!-- Artwork from www.kenney.nl -->
  <view id="giraffe" viewBox="0 0 200 200" />
  <view id="panda" viewBox="200 0 200 200" />
  <view id="parrot" viewBox="400 0 200 200" />
  <view id="penguin" viewBox="600 0 200 200" />
  <view id="monkey" viewBox="800 0 200 200" />
  <view id="rabbit" viewBox="0 200 200 200" />
  <view id="snake" viewBox="200 200 200 200" />
  <view id="hippo" viewBox="400 200 200 200" />
  <view id="pig" viewBox="600 200 200 200" />
  <view id="elephant" viewBox="800 200 200 200" /> 
  <defs
     id="defs4" />
  <g
     id="g3266"
     transform="translate(32.828923,-79.2097)">
    <path
       d="m 801.9,442.65 0,0.05 0.15,0 -0.15,-0.05 m 54.95,20.05 -0.05,0.05 0.05,0 0.05,-0.05 -0.05,0 m -72.7,-49.2 q -12.35,-19.95 -12.8,-48 l 0,-1.55 q 0,-19.5 13.85,-33.25 13.8,-13.85 33.4,-13.85 14.55,0.05 25.9,7.65 9.65,-2.85 20.5,-2.85 10.85,0 20.55,2.85 11.35,-7.55 25.85,-7.65 l 0.05,0 q 19.55,0.05 33.35,13.9 13.9,13.8 13.85,33.45 l 0,0.05 0,1.2 0,0.1 q -0.45,28 -12.75,47.95 -4.4,7.15 -9.35,11.95 2.85,6.1 5.2,13.75 1.25,2.75 0.35,6.35 l -0.6,1.5 q -1,2.1 -2.8,3.65 l -0.25,0.2 -4.45,3.5 -1,0.65 -2.45,1.1 -0.3,0.1 -2.3,0.3 -3.35,-0.5 -0.85,-0.3 q -2.9,-1.2 -4.55,-3.65 -3.05,-4 -6.55,-6.85 -14,12.9 -31.8,16.75 -3.7,7.4 -7.95,8.7 -3.25,1.05 -7.85,1.05 -4.45,0 -7.8,-1.05 l -0.1,0 q -4.2,-1.35 -7.5,-8.55 -18.05,-3.8 -32.2,-16.8 -3.6,2.85 -6.65,6.9 -1.65,2.5 -4.7,3.65 l -0.2,0.05 -3.8,0.65 -2.6,-0.4 -1.4,-0.5 q -0.9,-0.45 -1.7,-1.05 l -0.45,-0.35 q -4.1,-3.05 -7.1,-8.95 l -0.15,-0.3 -0.45,-1 q -0.8,-2.1 -0.1,-4.35 2.45,-7.95 5.45,-14.25 -5.05,-4.8 -9.45,-11.95"
       id="path28"
       inkscape:connector-curvature="0"
       style="fill:#747474;stroke:none" />
    <path
       d="m 858.9,364.15 q -0.1,0.65 -0.05,1.3 -0.45,25.9 -11.8,44.4 Q 835.3,429 818.6,429 q -16.7,0 -28.5,-19.2 -11.35,-18.45 -11.75,-44.4 l 0,-1.25 q -0.05,-16.7 11.8,-28.5 11.75,-11.8 28.45,-11.8 16.75,0 28.5,11.85 11.75,11.75 11.8,28.45 m 12.2,0 q 0,-16.65 11.8,-28.4 11.8,-11.85 28.5,-11.9 16.7,0.05 28.45,11.85 11.85,11.75 11.8,28.5 l 0,1.25 q -0.4,25.9 -11.75,44.4 Q 928.15,429 911.4,429.05 894.7,429 882.95,409.9 871.6,391.4 871.2,365.45 l -0.1,-1.3"
       id="path30"
       inkscape:connector-curvature="0"
       style="fill:#bdb6b6;stroke:none" />
    <path
       d="M 816.55,434.45 Q 801,416.8 801,392.65 q 0,-26.55 18.75,-45.3 18.75,-18.7 45.25,-18.7 26.55,0 45.25,18.7 18.75,18.75 18.75,45.3 0,24.15 -15.55,41.8 l -3.2,3.4 q -18.7,18.8 -45.25,18.8 -26.5,0 -45.25,-18.8 l -3.2,-3.4"
       id="path32"
       inkscape:connector-curvature="0"
       style="fill:#d2d0d0;stroke:none" />
    <path
       d="m 881.4,404.05 q 5.35,5.95 3.5,13.15 l -11.15,44.75 q -0.3,1.25 -2.95,2.05 -2.4,0.75 -5.75,0.75 -3.3,0 -5.8,-0.75 -2.55,-0.8 -2.85,-2.05 L 845.2,417.2 q -1.8,-7.2 3.4,-13.15 6.15,-6.7 16.45,-6.7 10.35,0 16.35,6.7"
       id="path34"
       inkscape:connector-curvature="0"
       style="fill:#bdb6b6;stroke:none" />
    <path
       d="m 935.2,441.75 q 0.4,0.85 0.1,2 l -0.1,0.15 -1.05,1.45 -4.45,3.5 -0.15,0.05 -1.25,0.6 -0.35,0.05 -1.45,-0.25 -0.05,0 q -0.95,-0.4 -1.5,-1.2 -13.45,-17.8 -34.85,-16.9 l -0.15,0 -1.5,-0.35 -0.1,-0.05 q -0.8,-0.45 -1.15,-1.15 l -0.1,-0.05 q -0.5,-0.85 -0.45,-1.55 L 886.6,428 q -0.45,-16.25 22.85,-20.2 0.9,-0.2 2,0.3 15.45,6.3 23.75,33.65 m -116.55,-33.6 q 1,-0.5 2,-0.3 23.2,3.95 22.8,20.2 l -0.05,0 q 0.05,0.8 -0.45,1.6 l -0.05,0.1 -1.15,1.1 -0.2,0.05 -1.4,0.4 -0.2,0 q -21.4,-0.9 -34.9,16.9 -0.5,0.8 -1.5,1.15 l 0,0.05 -1.45,0.2 -0.4,-0.05 -1.2,-0.55 -0.1,-0.1 -4.45,-3.45 -0.05,0 q -0.75,-0.6 -1.05,-1.45 l -0.05,-0.15 q -0.35,-1.2 0.05,-2.1 8.3,-27.25 23.8,-33.6"
       id="path36"
       inkscape:connector-curvature="0"
       style="fill:#ffffff;stroke:none" />
    <path
       d="m 842.65,396.3 0,0.25 0,0.5 q -0.35,3.05 -3.1,5.15 -3.05,2.4 -7.35,2.4 -4.3,0 -7.35,-2.4 -2.75,-2.1 -3,-5.15 l -0.05,-0.5 0,-0.25 0,-0.1 q 0.05,-5.85 3.05,-10 3.05,-4.2 7.35,-4.2 4.3,0 7.35,4.2 3.05,4.15 3.1,10 l 0,0.1 m 65.6,0 0,0.25 0,0.5 q -0.3,3.05 -3.05,5.15 -3.1,2.4 -7.4,2.4 -4.3,0 -7.35,-2.4 -2.75,-2.1 -3,-5.15 l -0.05,-0.5 0,-0.25 0,-0.1 q 0.05,-5.85 3.05,-10 3.05,-4.2 7.35,-4.2 4.3,0 7.4,4.2 3,4.15 3.05,10 l 0,0.1"
       id="path38"
       inkscape:connector-curvature="0"
       style="fill:#333333;stroke:none" />
  </g>
  <g
     id="g3291"
     transform="matrix(1.0367679,0,0,1.0367679,-59.47058,-88.667383)">
    <path
       d="m 487.8,144.4 q 20.8,-20.75 50.2,-20.75 29.45,0 50.2,20.75 20.8,20.8 20.8,50.25 0,26.8 -17.3,46.45 l -3.45,3.7 -0.05,0 q -10.2,10.25 -22.5,15.45 -12.8,5.4 -27.7,5.4 -14.9,0 -27.6,-5.4 -12.4,-5.2 -22.6,-15.45 l -3.5,-3.7 Q 467,221.45 467,194.65 467,165.2 487.8,144.4"
       id="path16"
       inkscape:connector-curvature="0"
       style="fill:#7b1e06;stroke:none" />
    <path
       d="m 513.1,253.8 q -11.15,-4.7 -20.35,-13.95 l -3.2,-3.4 Q 474,218.8 474,194.65 q 0,-26.55 18.75,-45.3 18.75,-18.7 45.25,-18.7 26.55,0 45.25,18.7 18.75,18.75 18.75,45.3 0,24.15 -15.55,41.8 l -3.2,3.4 q -9.2,9.25 -20.3,13.95 -2,-4.95 -6.05,-9 -7.8,-7.8 -18.9,-7.8 -11.1,0 -18.95,7.8 -4.05,4.05 -5.95,9"
       id="path40"
       inkscape:connector-curvature="0"
       style="fill:#d23007;stroke:none" />
    <path
       d="m 513.1,253.8 q 1.9,-4.95 5.95,-9 7.85,-7.8 18.95,-7.8 11.1,0 18.9,7.8 4.05,4.05 6.05,9 -11.5,4.85 -24.95,4.85 -13.45,0 -24.9,-4.85"
       id="path42"
       inkscape:connector-curvature="0"
       style="fill:#ffcc00;stroke:none" />
    <path
       d="m 552.45,148.7 q 3.9,6.75 4.65,12.65 0.9,5.85 -1.85,7.4 -2.75,1.6 -7.45,-2.05 -4.6,-3.65 -8.5,-10.4 l -0.9,-1.55 q -1.6,-3.2 -1.2,-6.5 0.4,-3.65 3.15,-5.25 2.75,-1.55 6.15,-0.1 3,1.3 5,4.3 l 0.95,1.5"
       id="path44"
       inkscape:connector-curvature="0"
       style="fill:#bb2905;stroke:none" />
    <path
       d="m 532.75,156.4 q -2.55,4.5 -5.7,6.9 -3.05,2.45 -4.85,1.35 -1.8,-1 -1.25,-4.9 0.55,-3.9 3.1,-8.35 l 0.6,-1.05 q 1.35,-2 3.35,-2.85 2.25,-1 4.05,0.05 1.8,1.1 2.1,3.55 0.25,2.1 -0.8,4.25 l -0.6,1.05"
       id="path46"
       inkscape:connector-curvature="0"
       style="fill:#bb2905;stroke:none" />
    <path
       d="m 528.1,198.15 -0.1,0.6 q -3.55,13.1 -11.3,20.95 -7.7,7.85 -15.1,5.8 -7.45,-2 -10.3,-12.6 -2.8,-10.7 0.75,-23.8 l 0.1,-0.55 q 2.1,-7.15 8.6,-10.85 6.65,-3.9 14.15,-1.95 7.4,2.05 11.3,8.7 3.7,6.55 1.9,13.7 m 56.05,-9.05 q 3.55,13.1 0.75,23.8 -2.8,10.6 -10.25,12.6 -7.45,2.05 -15.15,-5.8 -7.7,-7.85 -11.3,-20.95 l -0.05,-0.6 q -1.8,-7.15 1.85,-13.7 3.9,-6.65 11.35,-8.7 7.45,-1.95 14.1,1.95 6.5,3.7 8.6,10.85 l 0.1,0.55"
       id="path48"
       inkscape:connector-curvature="0"
       style="fill:#ffffff;stroke:none" />
    <path
       d="m 521,195.35 0,0.15 0,0.45 q -0.25,2.3 -2.35,3.95 -2.35,1.85 -5.65,1.85 -3.3,0 -5.65,-1.85 -2.1,-1.65 -2.3,-3.95 l -0.05,-0.45 0,-0.15 0,-0.1 q 0.05,-4.5 2.35,-7.65 2.35,-3.25 5.65,-3.25 3.3,0 5.65,3.25 2.3,3.15 2.35,7.65 l 0,0.1 m 50.4,0 0,0.15 0,0.45 q -0.2,2.3 -2.35,3.95 -2.35,1.85 -5.65,1.85 -3.3,0 -5.65,-1.85 -2.1,-1.65 -2.3,-3.95 l -0.05,-0.45 0,-0.15 0,-0.1 q 0.05,-4.5 2.35,-7.65 2.35,-3.25 5.65,-3.25 3.3,0 5.65,3.25 2.35,3.15 2.35,7.65 l 0,0.1"
       id="path50"
       inkscape:connector-curvature="0"
       style="fill:#333333;stroke:none" />
    <path
       d="m 555.9,223.45 q -17.85,4.55 -35.75,0 l -0.1,-0.85 -0.1,-1.95 0,-9.85 q 0,-2.35 0.55,-4.5 l 0.25,-0.85 0.05,-0.15 q 1.25,-4 4.4,-7.15 5.35,-5.3 12.85,-5.3 7.5,0 12.75,5.3 3.2,3.15 4.45,7.15 l 0.05,0.15 0.2,0.85 q 0.6,2.15 0.6,4.5 l 0,9.85 -0.1,1.95 -0.1,0.85"
       id="path52"
       inkscape:connector-curvature="0"
       style="fill:#5d9cf3;stroke:none" />
    <path
       d="m 555.9,223.45 q -0.85,5.7 -5.1,9.95 -5.25,5.3 -12.75,5.3 -7.5,0 -12.85,-5.3 -4.25,-4.25 -5.05,-9.95 17.9,4.55 35.75,0"
       id="path54"
       inkscape:connector-curvature="0"
       style="fill:#397ede;stroke:none" />
  </g>
  <g
     id="g3274"
     transform="matrix(1.0273543,0,0,1.0273543,1.34013,-87.866663)">
    <path
       d="M 802.2,222.2 Q 790,209.95 790,192.7 q 0,-17.3 12.2,-29.5 6.05,-6.05 13.35,-9.05 3.6,-5.1 8.25,-9.75 20.8,-20.75 50.2,-20.75 29.45,0 50.2,20.75 4.05,4.05 7.4,8.55 l 0.85,1.2 q 7.3,3 13.35,9.05 12.2,12.2 12.2,29.5 0,17.25 -12.2,29.5 -4.55,4.55 -9.8,7.4 -2,3.45 -4.4,6.75 l -0.05,0 -3.85,4.75 -3.45,3.7 -0.05,0 q -10.2,10.25 -22.5,15.45 -12.8,5.4 -27.7,5.4 -14.9,0 -27.6,-5.4 -12.4,-5.2 -22.6,-15.45 l -3.5,-3.7 q -4.8,-5.5 -8.25,-11.5 -5.3,-2.85 -9.85,-7.4"
       id="path10"
       inkscape:connector-curvature="0"
       style="fill:#62391b;stroke:none" />
    <path
       d="m 797,192.7 q 0,-14.4 10.15,-24.55 Q 817.3,158 831.7,158 q 14.4,0 24.55,10.15 10.15,10.15 10.15,24.55 0,14.35 -10.15,24.55 -10.15,10.15 -24.55,10.15 -14.4,0 -24.55,-10.15 Q 797,207.05 797,192.7 M 940.85,168.15 Q 951,178.3 951,192.7 q 0,14.35 -10.15,24.55 -10.15,10.15 -24.55,10.15 -14.35,0 -24.55,-10.15 -10.15,-10.2 -10.15,-24.55 0,-14.4 10.15,-24.55 10.2,-10.15 24.55,-10.15 14.4,0 24.55,10.15"
       id="path56"
       inkscape:connector-curvature="0"
       style="fill:#915b32;stroke:none" />
    <path
       d="m 849.1,253.8 q -11.15,-4.7 -20.35,-13.95 l -3.2,-3.4 Q 810,218.8 810,194.65 q 0,-26.55 18.75,-45.3 18.75,-18.7 45.25,-18.7 26.55,0 45.25,18.7 3.7,3.7 6.7,7.75 12.05,16.25 12.05,37.55 0,21.25 -12.05,37.5 l -3.5,4.3 -3.2,3.4 q -9.2,9.25 -20.3,13.95 -11.5,4.85 -24.95,4.85 -13.45,0 -24.9,-4.85"
       id="path58"
       inkscape:connector-curvature="0"
       style="fill:#a16639;stroke:none" />
    <path
       d="m 913.45,166.5 q 7.4,7.4 7.4,17.8 0,10.45 -7.4,17.9 l -4.25,3.4 q -0.1,14.65 -10.45,25 -10.5,10.45 -25.3,10.45 -14.75,0 -25.25,-10.45 -10.4,-10.35 -10.45,-25 l -4.2,-3.4 -0.05,0 q -7.4,-7.45 -7.4,-17.9 0,-10.4 7.4,-17.8 7.4,-7.4 17.85,-7.4 10.4,0 17.8,7.4 l 2.75,3.15 1.55,-0.05 1.6,0.05 q 1.2,-1.65 2.75,-3.15 7.35,-7.4 17.85,-7.4 10.4,0 17.8,7.4"
       id="path60"
       inkscape:connector-curvature="0"
       style="fill:#bf8559;stroke:none" />
    <path
       d="m 878.75,200.35 q 1.95,-1.95 4.1,-2.6 2.25,-0.6 3.35,0.5 1.1,1.1 0.5,3.35 -0.6,2.15 -2.6,4.1 l -0.1,0.15 q -1.1,1.05 -2.6,1.05 -1.6,0 -2.7,-1.1 -1.15,-1.15 -1.15,-2.75 0,-1.55 1.05,-2.6 l 0.15,-0.1 m -9.65,5.45 q -1.2,1.1 -2.75,1.1 -1.55,0 -2.65,-1.05 l -0.1,-0.15 q -2,-1.95 -2.55,-4.1 -0.6,-2.25 0.5,-3.35 1.15,-1.1 3.35,-0.5 2.2,0.65 4.1,2.6 l 0.15,0.1 q 1.05,1.05 1.05,2.6 0,1.6 -1.1,2.75"
       id="path62"
       inkscape:connector-curvature="0"
       style="fill:#a16639;stroke:none" />
    <path
       d="m 856.45,187.15 0,0.15 0,0.45 q -0.3,2.4 -2.45,4.05 -2.4,1.9 -5.8,1.9 -3.4,0 -5.8,-1.9 -2.15,-1.65 -2.4,-4.05 l -0.05,-0.45 0,-0.15 0,-0.1 q 0.05,-4.6 2.45,-7.9 2.4,-3.3 5.8,-3.3 3.4,0 5.8,3.3 2.4,3.3 2.45,7.9 l 0,0.1 m 51.75,0 0,0.15 0,0.45 q -0.25,2.4 -2.45,4.05 -2.4,1.9 -5.8,1.9 -3.4,0 -5.8,-1.9 -2.15,-1.65 -2.4,-4.05 l -0.05,-0.45 0,-0.15 0,-0.1 q 0.05,-4.6 2.45,-7.9 2.4,-3.3 5.8,-3.3 3.4,0 5.8,3.3 2.4,3.3 2.45,7.9 l 0,0.1"
       id="path64"
       inkscape:connector-curvature="0"
       style="fill:#333333;stroke:none" />
    <path
       d="m 887.55,211.1 q 3,-1.25 6.05,0 3.05,1.2 4.3,4.25 1.25,3.05 0.05,6.1 -1.25,3 -4.25,4.35 -17.7,7.6 -39.1,0.15 -3.15,-1.1 -4.55,-4.05 -1.45,-3 -0.35,-6.05 1.05,-3.15 4.05,-4.6 3,-1.4 6.05,-0.35 15.15,5.3 27.75,0.2"
       id="path66"
       inkscape:connector-curvature="0"
       style="fill:#ffffff;stroke:none" />
  </g>
  <g
     id="g3283"
     transform="matrix(1.0208715,0,0,1.0208715,-23.23527,-86.545113)">
    <path
       d="m 655.8,144.4 q 20.8,-20.75 50.2,-20.75 29.45,0 50.2,20.75 4.05,4.05 7.4,8.55 13.35,18.05 13.4,41.7 -0.05,23.6 -13.4,41.7 l -0.05,0 -3.85,4.75 -3.45,3.7 -0.05,0 q -10.2,10.25 -22.5,15.45 -12.8,5.4 -27.7,5.4 -14.9,0 -27.6,-5.4 -12.4,-5.2 -22.6,-15.45 l -3.5,-3.7 Q 635,221.45 635,194.65 635,165.2 655.8,144.4"
       id="path12"
       inkscape:connector-curvature="0"
       style="fill:#1c3943;stroke:none" />
    <path
       d="m 730.95,253.8 q -2,-4.95 -6.05,-9 -7.8,-7.8 -18.9,-7.8 -11.1,0 -18.95,7.8 -4.05,4.05 -5.95,9 -11.15,-4.7 -20.35,-13.95 l -3.2,-3.4 Q 642,218.8 642,194.65 q 0,-26.55 18.75,-45.3 18.75,-18.7 45.25,-18.7 26.55,0 45.25,18.7 3.7,3.7 6.7,7.75 12.05,16.25 12.05,37.55 0,21.25 -12.05,37.5 l -3.5,4.3 -3.2,3.4 q -9.2,9.25 -20.3,13.95"
       id="path68"
       inkscape:connector-curvature="0"
       style="fill:#365a66;stroke:none" />
    <path
       d="m 730.95,253.8 q -11.5,4.85 -24.95,4.85 -13.45,0 -24.9,-4.85 1.9,-4.95 5.95,-9 7.85,-7.8 18.95,-7.8 11.1,0 18.9,7.8 4.05,4.05 6.05,9"
       id="path70"
       inkscape:connector-curvature="0"
       style="fill:#e5f3f7;stroke:none" />
    <path
       d="m 748.7,185.15 0.15,0.5 q 2.95,11.05 0.7,20 -2.35,9 -8.6,10.65 -6.25,1.65 -12.8,-4.9 -6.55,-6.6 -9.5,-17.65 l -0.15,-0.5 q -1.45,-6.1 1.7,-11.5 3.25,-5.7 9.5,-7.35 6.25,-1.65 11.9,1.6 5.4,3.15 7.1,9.15 m -55.1,8.15 -0.15,0.5 q -2.95,11.05 -9.4,17.6 -6.55,6.6 -12.85,4.95 -6.2,-1.7 -8.55,-10.65 -2.4,-9 0.55,-20.05 l 0.15,-0.5 q 1.75,-6 7.2,-9.15 5.65,-3.25 11.9,-1.55 6.3,1.65 9.5,7.3 3.2,5.45 1.65,11.55"
       id="path72"
       inkscape:connector-curvature="0"
       style="fill:#f2f9fb;stroke:none" />
    <path
       d="m 688.8,192.35 0,0.2 0,0.45 q -0.3,2.35 -2.4,4 -2.4,1.85 -5.75,1.85 -3.35,0 -5.75,-1.85 -2.15,-1.65 -2.35,-4 l -0.05,-0.45 0,-0.2 0,-0.05 q 0.05,-4.6 2.4,-7.8 2.4,-3.25 5.75,-3.25 3.35,0 5.75,3.25 2.35,3.2 2.4,7.8 l 0,0.05 m 51.15,0 0,0.2 0,0.45 q -0.25,2.35 -2.4,4 -2.4,1.85 -5.75,1.85 -3.35,0 -5.75,-1.85 -2.1,-1.65 -2.35,-4 l -0.05,-0.45 0,-0.2 0,-0.05 q 0.05,-4.6 2.4,-7.8 2.4,-3.25 5.75,-3.25 3.35,0 5.75,3.25 2.35,3.2 2.4,7.8 l 0,0.05"
       id="path74"
       inkscape:connector-curvature="0"
       style="fill:#333333;stroke:none" />
    <path
       d="m 720.35,212.8 q -0.25,3.2 -4.15,5.5 -4.2,2.45 -10.15,2.45 -6,0 -10.25,-2.45 -3.85,-2.3 -4.15,-5.5 l -0.05,-0.95 q 0,-5.95 4.2,-10.2 4.25,-4.2 10.25,-4.2 5.95,0 10.15,4.2 4.2,4.25 4.2,10.2 l -0.05,0.95"
       id="path76"
       inkscape:connector-curvature="0"
       style="fill:#ff9900;stroke:none" />
  </g>
  <g
     id="g3302"
     transform="translate(0.5,0.49781738)">
    <g
       id="g4236"
       transform="matrix(1.0150614,0,0,1.0150614,-78.108348,-84.967808)">
      <g
         id="g4221">
        <g
           id="g4207">
          <g
             id="g4194">
            <path
               d="m 287,168.7 q 0,-17.1 12.1,-29.2 12.05,-12.05 29.15,-12.05 6.95,0 13.1,2 13.1,-5.8 28.65,-5.8 15.55,0 28.7,5.8 6.1,-2 13.05,-2 17.1,0 29.2,12.05 l 0,0.05 Q 453,151.6 453,168.7 q 0,17.1 -12.05,29.15 l 0,0.05 q -1,24.75 -17.25,43.2 l -3.45,3.7 -0.05,0 q -10.2,10.25 -22.5,15.45 -12.8,5.4 -27.7,5.4 -14.9,0 -27.6,-5.4 -12.4,-5.2 -22.6,-15.45 l -3.5,-3.7 Q 300.05,222.65 299.1,197.8 287,185.75 287,168.7"
               id="path18"
               inkscape:connector-curvature="0"
               style="fill:#8c8c8c;stroke:none" />
            <path
               d="m 387.55,144.45 q 10,-10 24.2,-10 14.2,0 24.25,10 10,10.05 10,24.25 0,14.2 -10,24.2 -10.05,10.05 -24.25,10.05 -14.2,0 -24.2,-10.05 -10.05,-10 -10.05,-24.2 0,-14.2 10.05,-24.25 m 4.15,27.6 q 0,6.9 4.9,11.8 4.9,4.9 11.8,4.9 6.95,0 11.85,-4.9 4.9,-4.9 4.9,-11.8 0,-6.95 -4.9,-11.85 -4.9,-4.85 -11.85,-4.85 -6.9,0 -11.8,4.85 -4.9,4.9 -4.9,11.85"
               id="path78"
               inkscape:connector-curvature="0"
               style="fill:#272626;stroke:none" />
            <path
               d="m 391.7,172.05 q 0,-6.95 4.9,-11.85 4.9,-4.85 11.8,-4.85 6.95,0 11.85,4.85 4.9,4.9 4.9,11.85 0,6.9 -4.9,11.8 -4.9,4.9 -11.85,4.9 -6.9,0 -11.8,-4.9 -4.9,-4.9 -4.9,-11.8"
               id="path80"
               inkscape:connector-curvature="0"
               style="fill:#383737;stroke:none" />
            <path
               d="m 352.45,144.45 q 10.05,10.05 10.05,24.25 0,14.2 -10.05,24.2 -10,10.05 -24.2,10.05 -14.2,0 -24.2,-10.05 -10.05,-10 -10.05,-24.2 0,-14.2 10.05,-24.25 10,-10 24.2,-10 14.2,0 24.2,10 m -32.7,39.4 q 4.9,4.9 11.85,4.9 6.9,0 11.8,-4.9 4.9,-4.9 4.9,-11.8 0,-6.95 -4.9,-11.85 -4.9,-4.85 -11.8,-4.85 -6.95,0 -11.85,4.85 -4.85,4.9 -4.85,11.85 0,6.9 4.85,11.8"
               id="path82"
               inkscape:connector-curvature="0"
               style="fill:#272626;stroke:none" />
            <path
               d="m 319.75,183.85 q -4.85,-4.9 -4.85,-11.8 0,-6.95 4.85,-11.85 4.9,-4.85 11.85,-4.85 6.9,0 11.8,4.85 4.9,4.9 4.9,11.85 0,6.9 -4.9,11.8 -4.9,4.9 -11.8,4.9 -6.95,0 -11.85,-4.9"
               id="path84"
               inkscape:connector-curvature="0"
               style="fill:#383737;stroke:none" />
            <path
               d="m 345.1,253.8 q -11.15,-4.7 -20.35,-13.95 l -3.2,-3.4 Q 306,218.8 306,194.65 q 0,-26.55 18.75,-45.3 18.75,-18.7 45.25,-18.7 26.55,0 45.25,18.7 18.75,18.75 18.75,45.3 0,24.15 -15.55,41.8 l -3.2,3.4 q -9.2,9.25 -20.3,13.95 -2,-4.95 -6.05,-9 -7.8,-7.8 -18.9,-7.8 -11.1,0 -18.95,7.8 -4.05,4.05 -5.95,9"
               id="path86"
               inkscape:connector-curvature="0"
               style="fill:#ffffff;stroke:none" />
            <path
               d="m 345.1,253.8 q 1.9,-4.95 5.95,-9 7.85,-7.8 18.95,-7.8 11.1,0 18.9,7.8 4.05,4.05 6.05,9 -11.5,4.85 -24.95,4.85 -13.45,0 -24.9,-4.85"
               id="path88"
               inkscape:connector-curvature="0"
               style="fill:#eeeeee;stroke:none" />
            <path
               d="m 404,181.05 q 6.2,3.65 9.15,8.65 2.95,5.05 0.95,8.55 -2.05,3.55 -7.9,3.5 -5.85,-0.05 -12.05,-3.65 l -0.25,-0.2 q -3.4,-1.95 -4.4,-5.8 -1.05,-3.95 0.95,-7.45 2.05,-3.55 6,-4.6 3.8,-1 7.25,0.85 l 0.3,0.15"
               id="path90"
               inkscape:connector-curvature="0"
               style="fill:#272626;stroke:none" />
            <path
               d="m 346.15,197.9 -0.25,0.2 q -6.25,3.6 -12.05,3.65 -5.85,0.05 -7.9,-3.5 -2.05,-3.5 0.95,-8.55 2.95,-5 9.15,-8.65 l 0.25,-0.15 q 3.45,-1.85 7.3,-0.85 3.9,1.05 6,4.6 2,3.5 0.95,7.45 -1.05,3.85 -4.4,5.8"
               id="path92"
               inkscape:connector-curvature="0"
               style="fill:#272626;stroke:none" />
            <path
               d="m 370,216.35 q -5.4,0 -9.25,-3.85 -3.8,-3.8 -3.8,-9.25 l 0,-0.9 q 0.3,-2.4 3.8,-4.1 3.85,-1.85 9.25,-1.85 5.4,0 9.25,1.85 3.45,1.7 3.8,4.1 l 0,0.9 q 0,5.45 -3.8,9.25 -3.85,3.85 -9.25,3.85"
               id="path94"
               inkscape:connector-curvature="0"
               style="fill:#272626;stroke:none" />
            <path
               d="m 393.1,218.15 q -0.95,1.8 -2.55,3.45 -4.25,4.2 -10.15,4.2 -5.9,0 -10.1,-4.2 l -0.3,-0.3 -0.3,0.3 q -4.25,4.2 -10.15,4.2 -5.95,0 -10.1,-4.2 -1.6,-1.6 -2.55,-3.35 -0.2,-0.35 -0.05,-0.65 0.05,-0.35 0.4,-0.55 l 4.6,-2.55 0.65,-0.1 0.55,0.45 1.35,1.75 q 2.15,2.15 5.15,2.15 3,0 5.15,-2.15 1.35,-1.4 1.85,-3.15 l 2.05,-7.3 0.35,-0.45 0.5,-0.2 0.9,0 0.5,0.2 0.35,0.45 2.15,7.2 0.05,0.05 q 0.45,1.8 1.9,3.2 2.1,2.15 5.1,2.15 3,0 5.15,-2.15 l 1.25,-1.65 0.5,-0.45 0.7,0.05 4.7,2.45 0.45,0.5 -0.05,0.65"
               id="path96"
               inkscape:connector-curvature="0"
               style="fill:#272626;stroke:none" />
          </g>
        </g>
      </g>
    </g>
  </g>
  <g
     id="g3315"
     transform="matrix(1.0158106,0,0,1.0158106,-107.06121,-84.894703)">
    <g
       id="g3351">
      <g
         id="g3339">
        <g
           id="g3328">
          <path
             style="fill:#9a7b00;stroke:none"
             inkscape:connector-curvature="0"
             id="path24"
             d="m 149.85,119.05 2.3,1.3 q 9.2,5.3 14.6,12.45 3.25,-1.85 6.6,-3.35 l -1.6,-4.65 -1.1,-0.55 -0.2,-0.1 q -6.25,-3.75 -8.15,-10.7 l 0,-0.05 q -1.9,-7.1 1.75,-13.4 3.65,-6.3 10.7,-8.2 6.75,-1.8 12.75,1.45 l 0.7,0.35 q 6.2,3.65 8.1,10.7 1.8,6.75 -1.3,12.75 l -0.5,0.95 -0.6,0.85 1,5.15 7.1,-0.35 7.2,0.35 0.95,-5.15 -0.55,-0.9 -0.6,-1.1 q -3.05,-5.9 -1.25,-12.45 l 0.05,-0.2 q 1.85,-7.05 8.1,-10.65 6.3,-3.65 13.4,-1.75 l 0.05,0 q 6.9,1.9 10.65,8.15 l 0,0.05 q 3.65,6.3 1.75,13.4 l 0,0.05 q -1.9,6.9 -8.1,10.65 l -0.05,0 -1.15,0.65 -1.7,4.75 q 3.3,1.45 6.5,3.3 5.4,-7.15 14.6,-12.45 l 0.15,-0.1 2.05,-1.1 0.8,-0.4 q 5.95,-3 14.15,1.5 l 0.15,0.1 q 6.8,3.75 11.5,11.9 l -0.05,0 q 4.7,8.05 4.55,15.8 l 0,0.1 q -0.15,9.45 -5.8,13.15 l -0.4,0.3 -2.4,1.45 q -4.45,2.55 -8.85,4.15 5.25,12.65 5.3,27.45 0,26.8 -17.3,46.45 l -3.45,3.7 -0.05,0 q -20.75,20.85 -50.2,20.85 -29.4,0 -50.2,-20.85 l -3.5,-3.7 Q 131,221.45 131,194.65 q 0.05,-14.8 5.3,-27.45 -4.4,-1.6 -8.85,-4.15 l 0.05,0 -2.4,-1.45 -0.45,-0.3 q -5.65,-3.7 -5.8,-13.15 l 0,-0.1 q -0.15,-7.75 4.55,-15.8 4.65,-8.15 11.5,-11.9 l 0.1,-0.1 q 8.2,-4.5 14.2,-1.5 0.3,0.1 0.65,0.3" />
          <path
             style="fill:#e9bb00;stroke:none"
             inkscape:connector-curvature="0"
             id="path98"
             d="m 125.85,148 q -0.05,-6 3.6,-12.25 3.65,-6.35 8.9,-9.35 4.75,-2.6 8.15,-1.2 l 2.15,1.2 q 10.45,6.05 15.2,14.8 4.85,8.75 1.25,15.05 -3.7,6.35 -13.7,6.55 -9.95,0.2 -20.45,-5.85 l -2.05,-1.25 q -2.95,-2.25 -3.05,-7.7 m 152.3,0 q -0.1,5.45 -3.05,7.7 l -2.05,1.25 q -10.5,6.05 -20.4,5.85 -10.05,-0.2 -13.7,-6.55 -3.65,-6.3 1.2,-15.05 4.75,-8.75 15.2,-14.8 l 2.15,-1.2 q 3.4,-1.4 8.15,1.2 5.25,3 8.9,9.35 3.65,6.25 3.6,12.25" />
          <path
             style="fill:#ffcc00;stroke:none"
             inkscape:connector-curvature="0"
             id="path100"
             d="m 250.45,236.45 q -3.8,-7.15 -9.95,-13.3 -15.9,-15.9 -38.5,-15.9 -22.55,0 -38.5,15.9 -6.15,6.15 -9.95,13.3 Q 138,218.8 138,194.65 q 0,-26.55 18.75,-45.3 18.75,-18.7 45.25,-18.7 26.55,0 45.25,18.7 18.75,18.75 18.75,45.3 0,24.15 -15.55,41.8" />
          <path
             style="fill:#cba200;stroke:none"
             inkscape:connector-curvature="0"
             id="path102"
             d="m 250.45,236.45 -3.2,3.4 q -18.7,18.8 -45.25,18.8 -26.5,0 -45.25,-18.8 l -3.2,-3.4 q 3.8,-7.15 9.95,-13.3 15.95,-15.9 38.5,-15.9 22.6,0 38.5,15.9 6.15,6.15 9.95,13.3" />
          <path
             style="fill:#a38200;stroke:none"
             inkscape:connector-curvature="0"
             id="path104"
             d="m 220.5,220.2 q 1.55,1.55 0.7,4.5 -0.8,2.95 -3.45,5.6 l -0.15,0.15 q -1.5,1.4 -3.55,1.4 -2.15,0 -3.65,-1.5 -1.5,-1.5 -1.5,-3.65 0,-2.1 1.4,-3.55 l 0.15,-0.15 q 2.65,-2.65 5.6,-3.45 2.95,-0.85 4.45,0.65 m -34.1,10.25 -0.15,-0.15 q -2.65,-2.65 -3.45,-5.6 -0.85,-2.95 0.7,-4.5 1.5,-1.5 4.45,-0.65 2.95,0.8 5.6,3.45 l 0.15,0.15 q 1.4,1.45 1.4,3.55 0,2.15 -1.5,3.65 -1.5,1.5 -3.65,1.5 -2.05,0 -3.55,-1.4" />
          <path
             style="fill:#543209;stroke:none"
             inkscape:connector-curvature="0"
             id="path106"
             d="m 180.35,194.4 0,0.2 0,0.5 q -0.3,2.95 -2.95,5 -2.95,2.3 -7.1,2.3 -4.15,0 -7.1,-2.3 -2.65,-2.05 -2.9,-5 l -0.05,-0.5 0,-0.2 0,-0.15 q 0.05,-5.65 2.95,-9.65 2.95,-4.05 7.1,-4.05 4.15,0 7.1,4.05 2.9,4 2.95,9.65 l 0,0.15" />
          <path
             style="fill:#543209;stroke:none"
             inkscape:connector-curvature="0"
             id="path108"
             d="m 243.75,194.4 0,0.2 0,0.5 q -0.3,2.95 -2.95,5 -2.95,2.3 -7.1,2.3 -4.2,0 -7.15,-2.3 -2.65,-2.05 -2.9,-5 l -0.05,-0.5 0,-0.2 0,-0.15 q 0.05,-5.65 2.95,-9.65 2.95,-4.05 7.15,-4.05 4.15,0 7.1,4.05 2.9,4 2.95,9.65 l 0,0.15" />
          <path
             style="fill:#e9bb00;stroke:none"
             inkscape:connector-curvature="0"
             id="path110"
             d="m 197.6,155.85 -4.95,6.8 q -0.5,0.65 -1.3,0.9 -0.85,0.25 -1.65,0 l -7.95,-2.6 q -0.85,-0.25 -1.35,-0.9 -0.5,-0.7 -0.5,-1.6 l 0,-8.4 q 0,-0.85 0.5,-1.5 0.5,-0.7 1.35,-1 L 189.7,145 q 0.8,-0.3 1.65,0 l 1.3,0.95 4.95,6.8 q 0.45,0.7 0.45,1.55 0,0.85 -0.45,1.55 m -8.6,23.65 -1.3,-6.1 q -0.2,-0.9 0.15,-1.65 0.35,-0.85 1.1,-1.25 l 5.45,-3.15 q 0.75,-0.4 1.6,-0.3 0.85,0.05 1.5,0.65 l 4.65,4.2 q 0.6,0.55 0.8,1.45 0.15,0.8 -0.2,1.6 l -2.55,5.7 q -0.35,0.8 -1.1,1.25 -0.75,0.45 -1.6,0.35 l -6.2,-0.65 q -0.85,-0.15 -1.5,-0.65 -0.6,-0.65 -0.8,-1.45 m 21.25,-7.7 -9.75,-7.05 q -0.7,-0.55 -0.95,-1.35 -0.25,-0.8 0,-1.6 l 3.7,-11.45 q 0.25,-0.85 0.95,-1.35 0.65,-0.5 1.55,-0.5 l 12.05,0 q 0.9,0 1.6,0.5 0.65,0.5 0.9,1.35 l 3.7,11.45 q 0.25,0.8 0,1.6 -0.25,0.8 -0.9,1.35 l -9.7,7.05 -1.6,0.5 q -0.85,0 -1.55,-0.5" />
          <path
             style="fill:#cba200;stroke:none"
             inkscape:connector-curvature="0"
             id="path112"
             d="m 227.5,98.55 q 4.2,1.15 6.45,4.95 2.2,3.8 1.05,8.1 -1.15,4.2 -4.95,6.45 -1.55,0.9 -3.15,1.25 l -6.55,18.65 0,0.05 q -0.5,1.25 -1.65,1.85 l 0,0.05 -2.4,0.25 0.05,0 q -1.2,-0.25 -1.95,-1.45 -0.7,-1.1 -0.4,-2.45 l 3.65,-19.4 -2.15,-2.65 0,-0.05 q -2.2,-3.8 -1,-8.05 1.1,-4.3 4.9,-6.5 3.8,-2.2 8.1,-1.05 m -58.45,13.05 q -1.15,-4.3 1.05,-8.1 2.2,-3.8 6.45,-4.95 4.3,-1.15 8.05,1.1 l 0.05,0 q 3.75,2.2 4.9,6.45 1.15,4.3 -1,8.1 l 0,0.05 -2.15,2.6 3.7,19.45 -0.05,-0.05 q 0.25,1.35 -0.45,2.5 l 0.05,0 q -0.7,1.05 -1.9,1.45 l -2.4,-0.25 -0.1,-0.05 q -1.05,-0.6 -1.5,-1.9 l -0.05,0 -6.5,-18.7 q -1.65,-0.35 -3.2,-1.2 -3.8,-2.25 -4.95,-6.5" />
        </g>
      </g>
    </g>
  </g>
  <g
     id="g3221"
     transform="matrix(1.0113018,0,0,1.0113018,-106.45758,-81.054713)">
    <path
       d="m 161.35,280 q 11.7,-4.65 25.3,16.15 7,10.75 12.35,25.55 l 3,-0.05 3,0.05 q 5.35,-14.8 12.4,-25.6 13.55,-20.8 25.25,-16.1 12.5,1.8 13.95,26.55 l 0,0.05 q 0.85,16.2 -3.75,36.5 20.15,20.55 20.15,49.55 0,26.8 -17.3,46.45 l -3.45,3.7 -0.05,0 q -20.75,20.85 -50.2,20.85 -29.4,0 -50.2,-20.85 l -3.5,-3.7 Q 131,419.45 131,392.65 q 0,-28.95 20.15,-49.55 -4.6,-20.35 -3.7,-36.45 1.3,-24.85 13.9,-26.65"
       id="path26"
       inkscape:connector-curvature="0"
       style="fill:#747474;stroke:none" />
    <path
       d="m 163.15,286.75 q 7.65,-2.05 17.6,13.2 9.55,14.7 15.8,37.25 l 0.1,0.5 q 1.95,7.1 -2.2,13.6 -4.1,6.5 -11.75,8.55 -7.7,2.05 -14.5,-1.5 -6.85,-3.55 -8.75,-10.65 l -0.15,-0.55 q -5.8,-22.65 -4.85,-40.15 0.95,-18.2 8.7,-20.25 m 77.7,0 q 7.7,2.05 8.75,20.2 0.9,17.55 -4.95,40.2 l -0.1,0.5 q -1.95,7.1 -8.7,10.65 -6.85,3.6 -14.55,1.55 -7.7,-2.1 -11.8,-8.6 -4.1,-6.5 -2.2,-13.6 l 0.15,-0.5 q 6.25,-22.5 15.8,-37.25 9.95,-15.25 17.6,-13.15"
       id="path114"
       inkscape:connector-curvature="0"
       style="fill:#bdbdbd;stroke:none" />
    <path
       d="M 153.55,434.45 Q 138,416.8 138,392.65 q 0,-26.55 18.75,-45.3 18.75,-18.7 45.25,-18.7 26.55,0 45.25,18.7 18.75,18.75 18.75,45.3 0,24.15 -15.55,41.8 l -3.2,3.4 q -18.7,18.8 -45.25,18.8 -26.5,0 -45.25,-18.8 l -3.2,-3.4"
       id="path116"
       inkscape:connector-curvature="0"
       style="fill:#d2d0d0;stroke:none" />
    <path
       d="m 212.6,418.25 q 0,4.65 -3.3,7.9 -3.25,3.35 -7.9,3.35 -4.7,0 -8,-3.35 -3.25,-3.25 -3.25,-7.9 0,-4.65 3.25,-8 3.3,-3.25 8,-3.25 4.65,0 7.9,3.25 3.3,3.35 3.3,8"
       id="path118"
       inkscape:connector-curvature="0"
       style="fill:#b1b1b1;stroke:none" />
    <path
       d="m 189.85,393.75 25.5,0 q 6.2,0.1 10.65,4.55 4.6,4.6 4.6,11.05 0,6.5 -4.6,11.1 -4.6,4.55 -11.05,4.55 -6.5,0 -11.05,-4.55 l -1.7,-2.05 -1.7,2.05 q -4.6,4.55 -11.1,4.55 -6.45,0 -11.05,-4.55 -4.55,-4.6 -4.55,-11.1 0,-6.45 4.55,-11.05 4.6,-4.55 11.05,-4.55 l 0.45,0"
       id="path120"
       inkscape:connector-curvature="0"
       style="fill:#ffffff;stroke:none" />
    <path
       d="m 211.55,385.85 q 3.35,1.65 3.65,3.95 l 0.05,0.9 q 0,5.2 -3.7,8.85 -3.65,3.7 -8.85,3.7 -5.2,0 -8.9,-3.7 -3.65,-3.65 -3.65,-8.85 l 0,-0.9 q 0.3,-2.3 3.65,-3.95 3.7,-1.8 8.9,-1.8 5.2,0 8.85,1.8"
       id="path122"
       inkscape:connector-curvature="0"
       style="fill:#ee9fee;stroke:none" />
    <path
       d="m 184.1,383.95 0,0.15 0,0.5 q -0.25,2.5 -2.6,4.25 -2.55,2 -6.15,2 -3.6,0 -6.15,-2 -2.3,-1.75 -2.55,-4.25 l 0,-0.5 0,-0.15 0,-0.15 q 0,-4.85 2.55,-8.35 2.55,-3.5 6.15,-3.5 3.6,0 6.15,3.5 2.55,3.5 2.6,8.35 l 0,0.15"
       id="path124"
       inkscape:connector-curvature="0"
       style="fill:#543209;stroke:none" />
    <path
       d="m 239,383.95 0,0.15 0,0.5 q -0.3,2.5 -2.6,4.25 -2.55,2 -6.15,2 -3.6,0 -6.15,-2 -2.3,-1.75 -2.55,-4.25 l 0,-0.5 0,-0.15 0,-0.15 q 0,-4.85 2.55,-8.35 2.55,-3.5 6.15,-3.5 3.6,0 6.15,3.5 2.55,3.5 2.6,8.35 l 0,0.15"
       id="path126"
       inkscape:connector-curvature="0"
       style="fill:#543209;stroke:none" />
    <path
       d="m 241.05,401.6 -0.5,3.95 -0.25,0.45 -0.45,0.1 q -9.1,-1.2 -17.65,1.85 l -0.45,-0.05 -0.4,-0.4 -1.3,-3.65 q -0.1,-0.3 0.05,-0.55 l 0.35,-0.3 q 9.7,-3.5 20.05,-2.1 0.3,0.05 0.45,0.25 l 0.1,0.45 m -19.7,7.95 q 11.3,-0.1 16.75,5.55 l 0.2,0.45 -0.2,0.5 -2.8,2.75 -0.45,0.2 q -0.3,0 -0.45,-0.2 -4.3,-4.05 -13.05,-4 l -0.45,-0.15 -0.2,-0.5 0,-3.9 q -0.05,-0.3 0.15,-0.5 l 0.5,-0.2 m -38.6,0 0.5,0.2 0.15,0.5 -0.05,3.9 -0.2,0.5 -0.45,0.15 q -8.7,-0.05 -13.05,4 -0.15,0.2 -0.45,0.2 l -0.4,-0.2 -2.8,-2.75 -0.25,-0.5 0.25,-0.45 q 5.4,-5.65 16.75,-5.55 m -19.8,-7.95 0.15,-0.45 q 0.15,-0.2 0.45,-0.25 10.4,-1.4 20.05,2.1 l 0.4,0.3 0,0.55 -1.3,3.65 -0.35,0.4 -0.5,0.05 q -8.5,-3.05 -17.6,-1.85 l -0.45,-0.1 -0.25,-0.45 -0.6,-3.95"
       id="path128"
       inkscape:connector-curvature="0"
       style="fill:#b1b1b1;stroke:none" />
  </g>
  <g
     id="g3232"
     transform="translate(-52.17385,-82.554073)">
    <path
       d="m 373,470.1 q 0,8.9 -7.45,10.55 l -4.05,1.05 -11.45,-11.45 -11.5,11.45 -4.1,-1.05 Q 327,479 327,470.1 l 0,-5.65 q -3.45,1.7 -6.95,0.15 -3.05,-0.75 -5.8,-5.1 l -6,-9.35 q -4.4,-3.3 -8.45,-7.35 l -3.5,-3.7 Q 279,419.45 279,392.65 q 0,-29.45 20.8,-50.25 20.8,-20.75 50.2,-20.75 29.45,0 50.2,20.75 20.8,20.8 20.8,50.25 0,26.8 -17.3,46.45 l -3.45,3.7 -0.05,0 q -4.1,4.15 -8.5,7.45 l -5.95,9.3 0,-0.05 q -2.75,4.35 -5.8,5.1 -3.5,1.55 -6.95,-0.15 l 0,5.65 m -48.15,-12.6 0.15,-0.1 -0.35,-0.1 0.2,0.2"
       id="path20"
       inkscape:connector-curvature="0"
       style="fill:#347e0f;stroke:none" />
    <path
       d="m 366,449.05 0,21.05 q 0,3.1 -2.4,3.8 l -10.8,-10.8 q -2.8,-2.8 -5.6,0.05 l -10.8,10.75 q -2.4,-0.7 -2.4,-3.8 l 0,-21.05 32,0"
       id="path130"
       inkscape:connector-curvature="0"
       style="fill:#d23007;stroke:none" />
    <path
       d="m 313.85,445.9 17.3,6.25 -6.3,5.35 q -2.35,1.95 -4.7,-1.75 l -6.3,-9.85 m 72.3,0 -6.3,9.85 q -2.35,3.7 -4.7,1.75 l -6.3,-5.35 17.3,-6.25"
       id="path132"
       inkscape:connector-curvature="0"
       style="fill:#ffffff;stroke:none" />
    <path
       d="M 301.55,434.45 Q 286,416.8 286,392.65 q 0,-26.55 18.75,-45.3 18.75,-18.7 45.25,-18.7 26.55,0 45.25,18.7 18.75,18.75 18.75,45.3 0,24.15 -15.55,41.8 -3.8,-7.15 -9.95,-13.3 -15.9,-15.9 -38.5,-15.9 -22.55,0 -38.5,15.9 -6.15,6.15 -9.95,13.3"
       id="path134"
       inkscape:connector-curvature="0"
       style="fill:#66cc33;stroke:none" />
    <path
       d="m 301.55,434.45 q 3.8,-7.15 9.95,-13.3 15.95,-15.9 38.5,-15.9 22.6,0 38.5,15.9 6.15,6.15 9.95,13.3 l -3.2,3.4 q -18.7,18.8 -45.25,18.8 -26.5,0 -45.25,-18.8 l -3.2,-3.4"
       id="path136"
       inkscape:connector-curvature="0"
       style="fill:#79db48;stroke:none" />
    <path
       d="m 385.55,386.15 0.2,0 0.55,0 q 2.95,0.3 5.1,3.05 2.35,3 2.35,7.3 0,4.25 -2.35,7.3 -2.15,2.7 -5.1,2.95 l -0.55,0.05 -0.2,0 -0.15,0 -5.05,-0.7 q -2.7,-0.75 -4.85,-2.3 -4.15,-3.05 -4.15,-7.3 0,-4.3 4.15,-7.3 2.15,-1.6 4.85,-2.4 l 5.05,-0.65 0.15,0 m -71.1,20.65 -0.2,0 -0.55,0 q -2.95,-0.3 -5.1,-3 -2.35,-3.05 -2.35,-7.3 0,-4.3 2.35,-7.3 2.15,-2.75 5.1,-3 l 0.55,-0.05 0.2,0 0.15,0 q 2.75,0 5.05,0.7 2.7,0.75 4.85,2.35 4.15,3 4.15,7.3 0,4.25 -4.15,7.3 -2.15,1.55 -4.85,2.35 l -5.05,0.65 -0.15,0"
       id="path138"
       inkscape:connector-curvature="0"
       style="fill:#333333;stroke:none" />
    <path
       d="m 370.6,419 q 1.6,1.6 0.75,4.7 -0.85,3.15 -3.65,5.9 l -0.15,0.15 q -1.55,1.5 -3.75,1.5 -2.25,0 -3.85,-1.6 -1.6,-1.6 -1.6,-3.85 0,-2.2 1.5,-3.75 L 360,421.9 q 2.8,-2.75 5.9,-3.6 3.1,-0.9 4.7,0.7 m -30.55,10.65 q -1.6,1.6 -3.85,1.6 -2.15,0 -3.75,-1.5 l -0.15,-0.15 q -2.75,-2.75 -3.65,-5.9 -0.85,-3.1 0.75,-4.7 1.6,-1.6 4.7,-0.7 3.1,0.85 5.9,3.6 l 0.15,0.15 q 1.5,1.55 1.5,3.75 0,2.25 -1.6,3.85"
       id="path140"
       inkscape:connector-curvature="0"
       style="fill:#549f2e;stroke:none" />
    <path
       d="m 374,355.25 q -0.4,1 -1.35,1.5 -21.6,10.95 -45.2,0.05 l 0,-0.05 q -1.1,-0.55 -1.45,-1.55 -0.35,-1 0,-1.9 0.35,-1.15 1.5,-1.6 l -0.05,0 q 23.6,-11 45.2,0.05 l -0.05,-0.05 q 1,0.4 1.45,1.55 l 0,0.05 q 0.3,0.9 0,1.9 l -0.05,0.05 m -38.55,19.05 q -0.95,-0.45 -1.2,-1.25 -0.35,-0.85 -0.05,-1.55 0.25,-1 1.3,-1.4 15.2,-7.1 29.15,0.05 l 0.05,0 q 0.85,0.4 1.15,1.35 0.25,0.7 -0.05,1.55 l 0.05,-0.1 q -0.3,0.9 -1.15,1.3 l -0.05,0.05 q -14,7.05 -29.25,0 l 0.05,0"
       id="path142"
       inkscape:connector-curvature="0"
       style="fill:#79db48;stroke:none" />
  </g>
  <g
     id="g3257"
     transform="matrix(1.0176639,0,0,1.0176639,9.7039236,-86.61131)">
    <path
       d="m 641.1,330.7 0.45,0.25 q 15.8,-9.25 35.45,-9.3 19.65,0.05 35.5,9.3 l 0.45,-0.25 -0.05,0 q 9.3,-5.4 18.25,-5.25 l 0.05,0 q 10.55,0.15 14.7,6.5 l 0.15,0.2 1.75,2.9 0.05,0.05 0.05,0.1 0.05,0.15 q 8.15,14.25 7.8,27.8 -0.25,14.15 -8.25,20.4 0.5,4.45 0.5,9.1 0,26.8 -17.3,46.45 l -3.45,3.7 -0.05,0 q -20.75,20.85 -50.2,20.85 -29.4,0 -50.2,-20.85 l -3.5,-3.7 Q 606,419.45 606,392.65 q 0,-4.65 0.55,-9.1 -8.05,-6.25 -8.3,-20.4 -0.35,-13.65 7.9,-28 l 1.7,-2.8 0.25,-0.4 q 4.15,-6.35 14.7,-6.5 l 0.05,0 q 8.95,-0.15 18.25,5.25"
       id="path14"
       inkscape:connector-curvature="0"
       style="fill:#8e488e;stroke:none" />
    <g
       id="g3250">
      <path
         style="fill:#d987d9;stroke:none"
         inkscape:connector-curvature="0"
         id="path144"
         d="m 647.2,362.3 q -6.8,10.55 -16.1,15.6 -4.95,2.75 -9.25,3.25 -4.8,0.5 -8.85,-1.8 -7.55,-4.35 -7.75,-16.35 -0.25,-11.9 7,-24.45 l 1.45,-2.4 q 2.7,-3.6 9.2,-3.7 7.2,-0.05 14.7,4.3 7.6,4.35 11.2,10.6 3.1,5.7 1.4,9.8 l -1.4,2.55 -1.6,2.6 m 59.65,0 -1.6,-2.6 -1.45,-2.55 q -1.7,-4.1 1.45,-9.8 3.55,-6.25 11.15,-10.6 7.5,-4.35 14.7,-4.3 6.5,0.1 9.2,3.7 l 1.45,2.4 q 7.25,12.55 7,24.45 -0.2,12 -7.75,16.35 -4.05,2.3 -8.85,1.8 -4.3,-0.5 -9.25,-3.25 -9.3,-5.05 -16.05,-15.6" />
      <path
         style="fill:#ee9fee;stroke:none"
         inkscape:connector-curvature="0"
         id="path146"
         d="M 628.55,434.45 Q 613,416.8 613,392.65 q 0,-26.55 18.75,-45.3 18.75,-18.7 45.25,-18.7 26.55,0 45.25,18.7 18.75,18.75 18.75,45.3 0,24.15 -15.55,41.8 l -3.2,3.4 q -18.7,18.8 -45.25,18.8 -26.5,0 -45.25,-18.8 l -3.2,-3.4" />
      <path
         style="fill:#cd76cd;stroke:none"
         inkscape:connector-curvature="0"
         id="path148"
         d="m 677,390 q 9.45,0 16.1,6.65 6.65,6.7 6.65,16.1 0,9.45 -6.65,16.1 -6.65,6.65 -16.1,6.65 -9.4,0 -16.1,-6.65 -6.65,-6.65 -6.65,-16.1 0,-9.4 6.65,-16.1 Q 667.6,390 677,390" />
      <path
         style="fill:#ee9fee;stroke:none"
         inkscape:connector-curvature="0"
         id="path150"
         d="m 682.55,412.45 q 2.2,-2.2 4.65,-2.95 2.55,-0.65 3.8,0.6 1.25,1.25 0.6,3.8 -0.7,2.45 -2.95,4.65 l -0.1,0.15 q -1.25,1.2 -3,1.2 -1.8,0 -3.05,-1.25 -1.3,-1.3 -1.3,-3.1 0,-1.8 1.2,-3 l 0.15,-0.1 m -11.05,0 0.15,0.1 q 1.2,1.2 1.2,3 0,1.8 -1.25,3.1 -1.35,1.25 -3.15,1.25 -1.75,0 -3,-1.2 l -0.1,-0.15 q -2.25,-2.2 -2.9,-4.65 -0.7,-2.55 0.6,-3.8 1.25,-1.25 3.75,-0.6 2.5,0.75 4.7,2.95" />
      <path
         style="fill:#333333;stroke:none"
         inkscape:connector-curvature="0"
         id="path152"
         d="m 651.75,395.9 0,0.25 0,0.6 q -0.35,3.4 -3.45,5.8 -3.45,2.7 -8.3,2.7 -4.85,0 -8.3,-2.7 -3.1,-2.4 -3.4,-5.8 l -0.05,-0.6 0,-0.25 0,-0.15 q 0.05,-6.6 3.45,-11.25 3.45,-4.75 8.3,-4.75 4.85,0 8.3,4.75 3.4,4.65 3.45,11.25 l 0,0.15 m 74,0 0,0.25 0,0.6 q -0.35,3.4 -3.45,5.8 -3.45,2.7 -8.3,2.7 -4.85,0 -8.3,-2.7 -3.1,-2.4 -3.4,-5.8 l -0.05,-0.6 0,-0.25 0,-0.15 q 0.05,-6.6 3.45,-11.25 3.45,-4.75 8.3,-4.75 4.85,0 8.3,4.75 3.4,4.65 3.45,11.25 l 0,0.15" />
    </g>
  </g>
  <g
     id="g3242"
     transform="matrix(1.0171935,0,0,1.0171935,-9.33196,-86.345363)">
    <path
       d="m 569.3,349.7 q -3.25,5.65 -7.35,9.7 8,14.95 8.05,33.25 0,26.8 -17.3,46.45 l -3.45,3.7 -0.05,0 q -20.75,20.85 -50.2,20.85 -29.4,0 -50.2,-20.85 l -3.5,-3.7 Q 428,419.45 428,392.65 q 0.05,-18.3 8.05,-33.25 -4.1,-4.05 -7.35,-9.7 l 0,0.05 -1.5,-2.8 -0.3,-0.75 q -2.65,-5.65 2.15,-13.25 l 0,0.05 q 3.7,-6.1 11.4,-10.55 l 0.05,0 q 7.65,-4.4 14.7,-4.6 l 0.05,0 q 8.85,-0.35 12.55,4.7 l 0.55,0.8 1.55,2.55 0.8,1.4 q 13,-5.6 28.3,-5.65 15.35,0.05 28.35,5.65 l 0.75,-1.4 1.55,-2.55 0.6,-0.8 q 3.65,-5.05 12.45,-4.7 7.2,0.15 14.85,4.6 l 0.05,0 q 7.6,4.45 11.35,10.5 4.8,7.6 2.2,13.25 l -0.35,0.75 -1.5,2.8 0,-0.05"
       id="path22"
       inkscape:connector-curvature="0"
       style="fill:#28538e;stroke:none" />
    <path
       d="m 455.5,324.85 q 4.85,-0.2 6.95,2.25 l 1.4,2.3 q 5.4,9.35 5,18.45 -0.5,9.05 -6.5,12.55 -6.05,3.5 -14.1,-0.7 -8.1,-4.15 -13.5,-13.5 l -1.3,-2.4 q -1.1,-3 1.5,-7.1 2.95,-4.7 9,-8.2 6.05,-3.45 11.55,-3.65 m 86.95,0 q 5.6,0.2 11.6,3.65 6,3.5 9,8.2 2.6,4.1 1.5,7.1 l -1.3,2.4 q -5.4,9.35 -13.5,13.5 -8.1,4.2 -14.1,0.7 -6,-3.5 -6.45,-12.55 -0.45,-9.1 4.95,-18.45 l 1.4,-2.3 q 2.1,-2.45 6.9,-2.25"
       id="path154"
       inkscape:connector-curvature="0"
       style="fill:#4178c2;stroke:none" />
    <path
       d="M 450.55,434.45 Q 435,416.8 435,392.65 q 0,-26.55 18.75,-45.3 18.75,-18.7 45.25,-18.7 26.55,0 45.25,18.7 18.75,18.75 18.75,45.3 0,24.15 -15.55,41.8 -3.8,-7.15 -9.95,-13.3 -15.9,-15.9 -38.5,-15.9 -22.55,0 -38.5,15.9 -6.15,6.15 -9.95,13.3"
       id="path156"
       inkscape:connector-curvature="0"
       style="fill:#528cdb;stroke:none" />
    <path
       d="m 450.55,434.45 q 3.8,-7.15 9.95,-13.3 15.95,-15.9 38.5,-15.9 22.6,0 38.5,15.9 6.15,6.15 9.95,13.3 l -3.2,3.4 q -18.7,18.8 -45.25,18.8 -26.5,0 -45.25,-18.8 l -3.2,-3.4 M 517.5,418.2 q -1.5,-1.5 -4.45,-0.65 -2.95,0.8 -5.6,3.45 l -0.15,0.15 q -1.4,1.45 -1.4,3.55 0,2.15 1.5,3.65 1.5,1.5 3.65,1.5 2.05,0 3.55,-1.4 l 0.15,-0.15 q 2.65,-2.65 3.45,-5.6 0.85,-2.95 -0.7,-4.5 m -34.1,10.25 q 1.5,1.4 3.55,1.4 2.15,0 3.65,-1.5 1.5,-1.5 1.5,-3.65 0,-2.1 -1.4,-3.55 L 490.55,421 q -2.65,-2.65 -5.6,-3.45 -2.95,-0.85 -4.45,0.65 -1.55,1.55 -0.7,4.5 0.8,2.95 3.45,5.6 l 0.15,0.15"
       id="path158"
       inkscape:connector-curvature="0"
       style="fill:#4178c2;stroke:none" />
    <path
       d="m 483.4,428.45 -0.15,-0.15 q -2.65,-2.65 -3.45,-5.6 -0.85,-2.95 0.7,-4.5 1.5,-1.5 4.45,-0.65 2.95,0.8 5.6,3.45 l 0.15,0.15 q 1.4,1.45 1.4,3.55 0,2.15 -1.5,3.65 -1.5,1.5 -3.65,1.5 -2.05,0 -3.55,-1.4 m 34.1,-10.25 q 1.55,1.55 0.7,4.5 -0.8,2.95 -3.45,5.6 l -0.15,0.15 q -1.5,1.4 -3.55,1.4 -2.15,0 -3.65,-1.5 -1.5,-1.5 -1.5,-3.65 0,-2.1 1.4,-3.55 l 0.15,-0.15 q 2.65,-2.65 5.6,-3.45 2.95,-0.85 4.45,0.65"
       id="path160"
       inkscape:connector-curvature="0"
       style="fill:#3164a8;stroke:none" />
    <path
       d="m 476.85,392.5 0,0.2 0,0.55 q -0.3,2.95 -3,5.05 -3.05,2.4 -7.3,2.4 -4.25,0 -7.3,-2.4 -2.7,-2.1 -2.95,-5.05 l -0.05,-0.55 0,-0.2 0,-0.15 q 0.05,-5.8 3,-9.85 3.05,-4.2 7.3,-4.2 4.25,0 7.3,4.2 2.95,4.05 3,9.85 l 0,0.15 m 64.9,0 0,0.2 0,0.55 q -0.3,2.95 -3.05,5.05 -3,2.4 -7.25,2.4 -4.25,0 -7.3,-2.4 -2.7,-2.1 -2.95,-5.05 l -0.05,-0.55 0,-0.2 0,-0.15 q 0.05,-5.8 3,-9.85 3.05,-4.2 7.3,-4.2 4.25,0 7.25,4.2 3,4.05 3.05,9.85 l 0,0.15"
       id="path162"
       inkscape:connector-curvature="0"
       style="fill:#333333;stroke:none" />
  </g>
</svg>
